<svg width="601" height="197" viewBox="0 0 601 197" fill="none" xmlns="http://www.w3.org/2000/svg">
<path d="M67.0542 195.769C54.6203 195.769 43.4783 193.755 33.6281 189.726C23.7779 185.698 15.8655 179.735 9.89079 171.839C4.07757 163.942 1.00948 154.434 0.686523 143.315H44.7701C45.4161 149.6 47.596 154.434 51.31 157.819C55.024 161.042 59.8684 162.653 65.8431 162.653C71.9792 162.653 76.8236 161.283 80.3761 158.544C83.9287 155.643 85.7049 151.695 85.7049 146.699C85.7049 142.509 84.2516 139.045 81.345 136.305C78.5999 133.565 75.1281 131.309 70.9296 129.537C66.8927 127.764 61.0795 125.75 53.49 123.494C42.5094 120.109 33.5474 116.725 26.6038 113.341C19.6602 109.957 13.6855 104.961 8.67971 98.3542C3.67387 91.7471 1.17096 83.1255 1.17096 72.4896C1.17096 56.6969 6.90344 44.369 18.3684 35.5057C29.8334 26.4813 44.7701 21.9691 63.1787 21.9691C81.9102 21.9691 97.0084 26.4813 108.473 35.5057C119.938 44.369 126.075 56.7775 126.882 72.7314H82.0717C81.7487 67.2523 79.7302 62.9818 76.0162 59.9199C72.3022 56.6969 67.5386 55.0854 61.7254 55.0854C56.7195 55.0854 52.6826 56.4552 49.6145 59.1948C46.5464 61.7732 45.0124 65.5602 45.0124 70.5558C45.0124 76.0349 47.596 80.3054 52.7633 83.3673C57.9306 86.4291 66.0045 89.7327 76.9851 93.278C87.9656 96.9844 96.8469 100.53 103.629 103.914C110.573 107.298 116.547 112.213 121.553 118.659C126.559 125.105 129.062 133.404 129.062 143.557C129.062 153.226 126.559 162.008 121.553 169.905C116.709 177.801 109.604 184.086 100.238 188.759C90.8722 193.433 79.811 195.769 67.0542 195.769Z" fill="#088360"/>
<path d="M169.001 45.1747C161.734 45.1747 155.76 43.0798 151.077 38.8899C146.555 34.5388 144.295 29.2209 144.295 22.936C144.295 16.49 146.555 11.172 151.077 6.98214C155.76 2.63109 161.734 0.455566 169.001 0.455566C176.106 0.455566 181.919 2.63109 186.441 6.98214C191.123 11.172 193.465 16.49 193.465 22.936C193.465 29.2209 191.123 34.5388 186.441 38.8899C181.919 43.0798 176.106 45.1747 169.001 45.1747ZM189.589 59.1948V194.077H148.17V59.1948H189.589Z" fill="#088360"/>
<path d="M254.181 78.291C258.056 72.0062 263.627 66.93 270.894 63.0623C278.16 59.1947 286.476 57.261 295.842 57.261C306.984 57.261 317.077 60.0811 326.119 65.7213C335.162 71.3616 342.267 79.4191 347.435 89.8938C352.763 100.369 355.428 112.535 355.428 126.394C355.428 140.253 352.763 152.501 347.435 163.137C342.267 173.611 335.162 181.749 326.119 187.551C317.077 193.191 306.984 196.011 295.842 196.011C286.315 196.011 277.999 194.158 270.894 190.451C263.789 186.584 258.218 181.508 254.181 175.223V194.077H212.762V15.2008H254.181V78.291ZM313.282 126.394C313.282 116.081 310.375 108.023 304.562 102.222C298.91 96.2593 291.886 93.278 283.489 93.278C275.254 93.278 268.229 96.2593 262.416 102.222C256.764 108.184 253.939 116.322 253.939 126.636C253.939 136.95 256.764 145.088 262.416 151.05C268.229 157.013 275.254 159.994 283.489 159.994C291.724 159.994 298.749 157.013 304.562 151.05C310.375 144.927 313.282 136.708 313.282 126.394Z" fill="#088360"/>
<path d="M412.968 81.6752C417.812 74.2623 423.868 68.4609 431.134 64.271C438.401 59.9199 446.475 57.7444 455.356 57.7444V101.497H443.972C433.637 101.497 425.886 103.753 420.719 108.265C415.552 112.616 412.968 120.351 412.968 131.471V194.077H371.549V59.1948H412.968V81.6752Z" fill="#088360"/>
<path d="M529.959 196.011C516.718 196.011 504.768 193.191 494.111 187.551C483.615 181.911 475.299 173.853 469.162 163.378C463.188 152.903 460.2 140.656 460.2 126.636C460.2 112.777 463.268 100.61 469.405 90.1356C475.541 79.4997 483.938 71.3616 494.595 65.7213C505.253 60.0811 517.202 57.261 530.443 57.261C543.685 57.261 555.634 60.0811 566.292 65.7213C576.949 71.3616 585.346 79.4997 591.482 90.1356C597.618 100.61 600.687 112.777 600.687 126.636C600.687 140.495 597.538 152.742 591.24 163.378C585.104 173.853 576.626 181.911 565.807 187.551C555.15 193.191 543.2 196.011 529.959 196.011ZM529.959 160.236C537.871 160.236 544.573 157.335 550.063 151.534C555.715 145.732 558.541 137.433 558.541 126.636C558.541 115.839 555.796 107.54 550.305 101.738C544.976 95.937 538.356 93.0363 530.443 93.0363C522.369 93.0363 515.668 95.937 510.339 101.738C505.011 107.379 502.346 115.678 502.346 126.636C502.346 137.433 504.93 145.732 510.097 151.534C515.426 157.335 522.047 160.236 529.959 160.236Z" fill="#088360"/>
<path d="M483.023 38.299C483.023 30.8823 489.047 24.8698 496.479 24.8698H563.762C571.194 24.8698 577.218 30.8823 577.218 38.299C577.218 45.7157 571.194 51.7281 563.762 51.7281H496.479C489.047 51.7281 483.023 45.7157 483.023 38.299Z" fill="#088360"/>
</svg>
