<svg width="90" height="30" viewBox="0 0 90 30" fill="none" xmlns="http://www.w3.org/2000/svg">
<path d="M10.5543 29.7567C8.70821 29.7567 7.05396 29.4576 5.59151 28.8595C4.12906 28.2613 2.9543 27.3761 2.06724 26.2037C1.20415 25.0313 0.748633 23.6197 0.700684 21.9688H7.24576C7.34166 22.9019 7.66531 23.6197 8.21673 24.1222C8.76815 24.6007 9.48739 24.8399 10.3744 24.8399C11.2855 24.8399 12.0047 24.6366 12.5322 24.2298C13.0596 23.7992 13.3233 23.213 13.3233 22.4713C13.3233 21.8492 13.1076 21.3348 12.676 20.9281C12.2684 20.5213 11.753 20.1864 11.1296 19.9232C10.5303 19.66 9.66719 19.3609 8.54039 19.0259C6.91011 18.5235 5.57952 18.0211 4.54861 17.5186C3.5177 17.0162 2.63064 16.2745 1.88743 15.2935C1.14421 14.3126 0.772607 13.0325 0.772607 11.4534C0.772607 9.10868 1.62371 7.27835 3.32591 5.96242C5.0281 4.62257 7.24576 3.95265 9.97887 3.95265C12.7599 3.95265 15.0016 4.62257 16.7037 5.96242C18.4059 7.27835 19.317 9.12064 19.4369 11.4893H12.7839C12.7359 10.6758 12.4363 10.0418 11.8848 9.58719C11.3334 9.10868 10.6262 8.86942 9.76309 8.86942C9.01988 8.86942 8.42051 9.07279 7.965 9.47953C7.50948 9.86234 7.28172 10.4246 7.28172 11.1663C7.28172 11.9798 7.66531 12.6138 8.4325 13.0684C9.19969 13.523 10.3984 14.0135 12.0287 14.5398C13.659 15.0901 14.9776 15.6165 15.9845 16.119C17.0154 16.6214 17.9025 17.3511 18.6457 18.3082C19.3889 19.2652 19.7605 20.4974 19.7605 22.0047C19.7605 23.4403 19.3889 24.7442 18.6457 25.9166C17.9265 27.089 16.8716 28.0221 15.481 28.7159C14.0905 29.4098 12.4483 29.7567 10.5543 29.7567Z" fill="white"/>
<path d="M25.6902 7.39797C24.6114 7.39797 23.7243 7.08694 23.0291 6.46487C22.3578 5.81887 22.0221 5.02931 22.0221 4.09621C22.0221 3.13917 22.3578 2.34962 23.0291 1.72754C23.7243 1.08154 24.6114 0.758545 25.6902 0.758545C26.7451 0.758545 27.6082 1.08154 28.2795 1.72754C28.9748 2.34962 29.3224 3.13917 29.3224 4.09621C29.3224 5.02931 28.9748 5.81887 28.2795 6.46487C27.6082 7.08694 26.7451 7.39797 25.6902 7.39797ZM28.747 9.47953V29.5055H22.5975V9.47953H28.747Z" fill="white"/>
<path d="M38.3369 12.3147C38.9122 11.3816 39.7394 10.628 40.8182 10.0537C41.8971 9.47952 43.1318 9.19242 44.5223 9.19242C46.1766 9.19242 47.675 9.61112 49.0176 10.4485C50.3601 11.2859 51.415 12.4822 52.1822 14.0374C52.9734 15.5926 53.3689 17.399 53.3689 19.4566C53.3689 21.5142 52.9734 23.3326 52.1822 24.9117C51.415 26.4669 50.3601 27.6752 49.0176 28.5365C47.675 29.3739 46.1766 29.7926 44.5223 29.7926C43.1078 29.7926 41.8731 29.5174 40.8182 28.9671C39.7633 28.3929 38.9362 27.6393 38.3369 26.7062V29.5055H32.1874V2.94776H38.3369V12.3147ZM47.1116 19.4566C47.1116 17.9254 46.68 16.7291 45.8169 15.8677C44.9778 14.9825 43.9349 14.5398 42.6883 14.5398C41.4655 14.5398 40.4226 14.9825 39.5596 15.8677C38.7204 16.753 38.3009 17.9612 38.3009 19.4925C38.3009 21.0238 38.7204 22.232 39.5596 23.1173C40.4226 24.0025 41.4655 24.4452 42.6883 24.4452C43.911 24.4452 44.9539 24.0025 45.8169 23.1173C46.68 22.2081 47.1116 20.9879 47.1116 19.4566Z" fill="white"/>
<path d="M61.9119 12.8172C62.6311 11.7166 63.5302 10.8553 64.6091 10.2332C65.6879 9.58719 66.8866 9.26419 68.2052 9.26419V15.7601H66.515C64.9807 15.7601 63.8299 16.095 63.0627 16.765C62.2955 17.411 61.9119 18.5594 61.9119 20.2103V29.5055H55.7624V9.47953H61.9119V12.8172Z" fill="white"/>
<path d="M79.2815 29.7926C77.3156 29.7926 75.5415 29.3739 73.9592 28.5365C72.4008 27.6991 71.1661 26.5028 70.2551 24.9476C69.368 23.3924 68.9245 21.5741 68.9245 19.4925C68.9245 17.4349 69.38 15.6285 70.291 14.0733C71.2021 12.4942 72.4488 11.2859 74.0311 10.4485C75.6134 9.61112 77.3875 9.19242 79.3534 9.19242C81.3194 9.19242 83.0935 9.61112 84.6758 10.4485C86.2581 11.2859 87.5048 12.4942 88.4159 14.0733C89.3269 15.6285 89.7824 17.4349 89.7824 19.4925C89.7824 21.5501 89.3149 23.3685 88.3799 24.9476C87.4689 26.5028 86.2102 27.6991 84.6039 28.5365C83.0216 29.3739 81.2474 29.7926 79.2815 29.7926ZM79.2815 24.481C80.4563 24.481 81.4512 24.0504 82.2664 23.1891C83.1055 22.3277 83.525 21.0955 83.525 19.4925C83.525 17.8895 83.1175 16.6573 82.3023 15.796C81.5112 14.9346 80.5282 14.504 79.3534 14.504C78.1547 14.504 77.1598 14.9346 76.3686 15.796C75.5774 16.6334 75.1819 17.8655 75.1819 19.4925C75.1819 21.0955 75.5655 22.3277 76.3326 23.1891C77.1238 24.0504 78.1068 24.481 79.2815 24.481Z" fill="white"/>
<path d="M72.3129 6.37714C72.3129 5.27598 73.2074 4.38332 74.3108 4.38332H84.3002C85.4036 4.38332 86.2981 5.27598 86.2981 6.37714C86.2981 7.4783 85.4036 8.37096 84.3002 8.37096H74.3108C73.2074 8.37096 72.3129 7.4783 72.3129 6.37714Z" fill="white"/>
</svg>
